<?xml version="1.0" standalone="no"?>
<!DOCTYPE svg PUBLIC "-//W3C//DTD SVG 20010904//EN"
 "http://www.w3.org/TR/2001/REC-SVG-20010904/DTD/svg10.dtd">
<svg version="1.0" xmlns="http://www.w3.org/2000/svg"
 width="1280.000000pt" height="1214.000000pt" viewBox="0 0 1280.000000 1214.000000"
 preserveAspectRatio="xMidYMid meet">

<g transform="translate(0.000000,1214.000000) scale(0.100000,-0.100000)"
fill="#000000" stroke="none">
<path d="M6120 10399 c-294 -17 -738 -93 -995 -169 -378 -113 -700 -247 -1020
-425 -139 -77 -390 -243 -540 -355 -312 -235 -599 -516 -861 -840 -225 -278
-487 -710 -620 -1025 -97 -226 -168 -418 -204 -545 -7 -25 -16 -56 -21 -70
-24 -72 -92 -374 -119 -530 -45 -266 -55 -404 -54 -775 0 -431 23 -651 104
-1014 17 -76 27 -116 60 -236 5 -16 15 -56 24 -88 60 -218 207 -585 329 -817
183 -351 409 -680 656 -960 104 -118 331 -344 431 -430 41 -36 77 -68 80 -71
15 -17 206 -165 270 -209 142 -98 335 -223 425 -274 92 -53 357 -188 430 -218
260 -110 377 -152 620 -227 55 -17 319 -79 405 -95 360 -68 504 -81 900 -80
341 0 386 3 680 44 342 47 812 176 1105 304 16 8 50 23 75 33 25 11 65 28 90
39 71 29 357 177 440 226 579 348 1074 801 1441 1318 212 298 367 569 490 855
22 49 44 98 49 107 6 10 10 22 10 28 0 5 11 33 24 62 51 113 143 404 196 622
60 252 104 568 121 879 24 438 -35 996 -151 1417 -153 559 -368 1020 -693
1491 -167 242 -288 388 -507 612 -448 459 -961 807 -1565 1062 -651 274 -1383
397 -2105 354z m750 -298 c47 -6 123 -16 170 -22 177 -21 380 -65 630 -135
262 -74 435 -142 725 -285 455 -224 799 -473 1170 -844 317 -318 523 -590 737
-975 116 -209 241 -482 300 -655 5 -16 14 -39 19 -50 27 -63 116 -398 153
-570 28 -137 35 -178 68 -460 17 -147 17 -722 0 -870 -38 -325 -72 -503 -148
-777 -84 -306 -159 -496 -309 -793 -93 -183 -121 -233 -227 -399 -318 -499
-772 -962 -1268 -1293 -210 -141 -493 -294 -716 -388 -60 -25 -119 -50 -131
-55 -13 -6 -33 -14 -45 -20 -56 -23 -305 -101 -433 -134 -216 -57 -199 -53
-377 -86 -365 -66 -887 -83 -1248 -40 -200 24 -257 32 -291 41 -20 5 -50 9
-66 9 -17 0 -43 4 -59 9 -16 5 -54 14 -84 21 -514 116 -974 308 -1451 609 -98
62 -362 258 -459 342 -188 161 -452 435 -615 638 -155 193 -337 476 -464 723
-130 253 -239 526 -306 763 -69 250 -110 436 -134 620 -6 44 -15 114 -21 155
-5 41 -15 171 -22 287 -15 267 -3 518 43 858 24 182 39 251 109 520 81 306
168 534 321 838 161 321 347 600 575 867 96 113 408 428 479 485 28 21 70 58
95 80 171 155 574 414 875 561 323 158 616 260 985 342 220 50 317 64 665 96
83 8 674 -2 755 -13z"/>
<path d="M6020 10049 c-327 -38 -607 -91 -800 -151 -238 -75 -413 -137 -530
-190 -25 -11 -65 -29 -90 -40 -572 -252 -1165 -709 -1582 -1218 -189 -232
-384 -530 -520 -795 -164 -322 -318 -758 -382 -1085 -46 -231 -52 -271 -75
-500 -40 -377 -4 -975 78 -1325 6 -22 17 -71 26 -110 30 -132 115 -395 181
-564 56 -141 194 -430 271 -566 32 -55 106 -172 166 -260 357 -522 729 -892
1239 -1233 362 -243 757 -424 1228 -566 214 -64 482 -113 790 -146 104 -11
704 -15 731 -5 8 3 61 9 119 15 123 11 222 24 303 39 31 6 81 15 110 21 92 17
231 50 277 65 25 8 123 40 219 71 167 54 300 105 421 161 132 62 270 130 335
166 38 22 83 46 98 54 53 28 343 226 456 311 208 158 498 433 660 627 206 245
432 581 559 830 145 286 223 483 336 846 61 197 117 513 147 824 13 133 6 678
-10 805 -49 399 -102 628 -226 990 -64 188 -79 224 -199 470 -113 234 -160
315 -284 499 -236 348 -455 600 -793 907 -125 114 -495 378 -669 478 -58 33
-385 196 -483 240 -151 69 -541 197 -717 236 -139 31 -341 67 -450 79 -52 6
-133 16 -179 21 -100 12 -654 11 -761 -1z m625 -59 c244 -13 435 -37 670 -85
103 -21 243 -54 275 -65 14 -4 52 -16 85 -25 170 -50 441 -158 655 -263 741
-362 1405 -983 1828 -1709 43 -74 212 -406 212 -417 0 -4 9 -25 19 -49 53
-117 148 -380 177 -484 9 -32 20 -74 26 -93 25 -91 47 -192 82 -387 94 -517
77 -1173 -43 -1708 -5 -22 -12 -56 -16 -75 -4 -19 -10 -46 -15 -60 -4 -14 -13
-45 -20 -70 -106 -378 -317 -851 -520 -1160 -442 -675 -1042 -1211 -1731
-1548 -469 -228 -872 -345 -1449 -419 -212 -27 -758 -24 -980 6 -422 56 -717
129 -1060 264 -857 337 -1562 915 -2078 1703 -87 133 -153 252 -243 439 -223
465 -333 844 -406 1405 -25 192 -25 776 0 970 72 556 190 959 414 1418 217
445 484 814 844 1169 359 354 721 610 1151 818 209 100 542 230 683 266 17 4
73 18 125 32 328 83 680 129 1045 135 44 1 166 -3 270 -8z"/>
<path d="M6155 9924 c-151 -6 -375 -36 -600 -79 -322 -63 -722 -203 -1053
-369 -1099 -551 -1910 -1561 -2220 -2766 -16 -63 -35 -144 -41 -180 -7 -36
-16 -85 -21 -110 -8 -42 -15 -90 -40 -265 -5 -39 -14 -162 -20 -275 -46 -903
205 -1803 716 -2565 181 -270 335 -455 573 -688 308 -301 683 -568 1078 -766
637 -319 1355 -472 2070 -440 219 10 303 19 568 64 655 109 1345 422 1891 856
127 101 171 140 347 309 373 357 729 886 940 1396 241 584 341 1134 322 1769
-8 271 -38 526 -89 758 -151 684 -481 1342 -942 1877 -372 432 -812 774 -1324
1031 -85 43 -195 94 -245 114 -49 20 -103 43 -120 50 -238 102 -631 204 -945
245 -47 7 -112 16 -145 21 -64 9 -562 19 -700 13z m11 -2396 c-3 -68 -11 -195
-16 -283 -6 -88 -14 -232 -20 -320 -5 -88 -16 -268 -25 -400 -8 -132 -19 -312
-25 -400 -5 -88 -17 -270 -25 -405 -17 -279 -31 -504 -45 -735 -5 -88 -14
-239 -20 -335 -11 -188 -23 -383 -40 -685 -6 -104 -14 -221 -18 -260 l-7 -70
-281 -3 c-236 -2 -283 0 -287 12 -3 8 -2 58 3 113 4 54 13 168 19 253 7 85 16
210 22 277 6 67 8 131 4 142 -6 21 -12 21 -273 21 -147 0 -272 -4 -279 -8 -6
-4 -39 -88 -73 -187 -34 -99 -84 -245 -111 -325 -28 -80 -60 -174 -71 -210
-12 -36 -25 -71 -31 -77 -7 -10 -78 -13 -292 -13 l-283 0 8 33 c4 17 14 50 23
72 27 71 114 308 136 375 12 36 26 74 32 85 9 21 155 420 169 465 5 14 22 61
38 105 16 44 60 163 97 265 36 102 82 226 100 275 19 50 64 173 100 275 36
102 79 219 95 260 16 42 40 111 55 155 15 44 30 89 35 100 13 32 68 179 117
315 85 235 121 335 156 430 19 52 49 136 67 185 17 50 35 99 40 110 9 19 56
149 141 388 22 60 42 113 45 118 3 5 163 9 366 9 l361 0 -7 -122z m1474 103
c0 -18 -30 -165 -82 -401 -23 -108 -29 -134 -53 -245 -9 -44 -25 -120 -36
-170 -30 -142 -60 -286 -70 -335 -5 -25 -17 -82 -28 -128 -20 -88 -15 -109 17
-65 17 25 290 489 477 813 176 304 304 522 315 535 11 13 54 15 289 13 270 -3
276 -3 273 -23 -3 -17 -195 -332 -412 -675 -26 -41 -73 -115 -104 -165 -215
-340 -277 -442 -282 -462 -5 -20 -1 -394 26 -2067 5 -334 7 -612 4 -617 -3 -5
-131 -9 -284 -9 l-280 0 -5 23 c-2 12 -9 274 -15 582 -20 1084 -23 1206 -31
1211 -5 3 -35 -36 -66 -87 -32 -50 -87 -137 -123 -193 -69 -106 -85 -138 -94
-196 -3 -19 -10 -55 -16 -80 -6 -25 -15 -67 -20 -95 -5 -27 -14 -68 -19 -90
-15 -69 -101 -474 -132 -620 -11 -49 -24 -112 -29 -140 -6 -27 -14 -68 -19
-90 -5 -22 -14 -64 -20 -94 -6 -30 -16 -71 -21 -93 l-11 -38 -289 0 -290 0 0
24 c0 13 9 68 21 122 12 55 30 140 40 189 11 50 24 115 30 145 6 30 15 74 20
98 5 23 13 61 18 85 15 72 29 137 61 282 31 143 66 309 80 380 4 22 13 65 20
95 7 30 16 73 20 95 8 40 113 530 151 705 12 52 25 113 29 135 4 22 17 85 29
140 31 141 92 432 101 480 8 42 64 301 80 370 9 40 66 306 94 445 32 154 45
211 51 220 4 6 117 10 296 10 278 0 289 -1 289 -19z"/>
<path d="M5536 6432 c-7 -11 -159 -452 -217 -627 -22 -66 -44 -129 -49 -140
-10 -23 -48 -131 -126 -360 -80 -233 -75 -214 -54 -225 23 -12 320 -13 352 -1
26 10 23 -17 63 481 65 812 68 870 48 877 -6 2 -14 0 -17 -5z"/>
</g>
</svg>
